<svg width="22" height="22" viewBox="0 0 22 22" fill="none" xmlns="http://www.w3.org/2000/svg">
<path d="M2.0625 13.0625H11" stroke="#416EF2" stroke-width="2" stroke-miterlimit="10" stroke-linecap="round" stroke-linejoin="round"/>
<path d="M5.5 19.9375H11.6875" stroke="#416EF2" stroke-width="2" stroke-miterlimit="10" stroke-linecap="round" stroke-linejoin="round"/>
<path d="M7.7 19.9375C8.45625 18.975 8.9375 17.2562 8.9375 15.8125H3.4375C2.68125 15.8125 2.0625 15.1938 2.0625 14.4375V4.125C2.0625 3.36875 2.68125 2.75 3.4375 2.75H17.1875C17.9438 2.75 18.5625 3.36875 18.5625 4.125V8.25" stroke="#416EF2" stroke-width="2" stroke-miterlimit="10" stroke-linecap="round" stroke-linejoin="round"/>
<path d="M16.5 17.1875C18.3985 17.1875 19.9375 15.6485 19.9375 13.75C19.9375 11.8515 18.3985 10.3125 16.5 10.3125C14.6015 10.3125 13.0625 11.8515 13.0625 13.75C13.0625 15.6485 14.6015 17.1875 16.5 17.1875Z" stroke="#416EF2" stroke-width="2" stroke-miterlimit="10" stroke-linecap="round" stroke-linejoin="round"/>
<path d="M17.1877 17.1875H15.8127L13.8877 18.7C13.4064 19.1125 13.6814 19.9375 14.3002 19.9375H18.6314C19.2502 19.9375 19.5939 19.1125 19.0439 18.7L17.1877 17.1875Z" stroke="#416EF2" stroke-width="2" stroke-miterlimit="10" stroke-linecap="round" stroke-linejoin="round"/>
<path d="M16.5 14.4375C16.8797 14.4375 17.1875 14.1297 17.1875 13.75C17.1875 13.3703 16.8797 13.0625 16.5 13.0625C16.1203 13.0625 15.8125 13.3703 15.8125 13.75C15.8125 14.1297 16.1203 14.4375 16.5 14.4375Z" stroke="#416EF2" stroke-width="2" stroke-miterlimit="10" stroke-linecap="round" stroke-linejoin="round"/>
</svg>
