<svg width="545" height="568" viewBox="0 0 734 468" fill="none" xmlns="http://www.w3.org/2000/svg">
<path d="M200.667 317.333H534M167.333 167.333H167.667M300.667 167.333H301M434 167.333H434.333M567.333 167.333H567.667M140.667 434H594C631.337 434 650.007 434 664.267 426.733C676.81 420.343 687.01 410.143 693.4 397.6C700.667 383.34 700.667 364.67 700.667 327.333V140.667C700.667 103.33 700.667 84.6613 693.4 70.4007C687.01 57.8563 676.81 47.6577 664.267 41.2663C650.007 34 631.337 34 594 34H140.667C103.33 34 84.6613 34 70.4007 41.2663C57.8563 47.6577 47.6577 57.8563 41.2663 70.4007C34 84.6613 34 103.33 34 140.667V327.333C34 364.67 34 383.34 41.2663 397.6C47.6577 410.143 57.8563 420.343 70.4007 426.733C84.6613 434 103.33 434 140.667 434Z" stroke="#416EF2" stroke-width="66.6667" stroke-linecap="round" stroke-linejoin="round"/>
</svg>
