<svg width="450" height="700" viewBox="0 0 450 700" fill="none" xmlns="http://www.w3.org/2000/svg">
<path fill-rule="evenodd" clip-rule="evenodd" d="M100 162.925V75C100 33.575 133.575 0 175 0H275C316.425 0 350 33.575 350 75V162.925C410.275 203.3 450 272.05 450 350C450 427.95 410.275 496.7 350 537.075V625C350 666.425 316.425 700 275 700H175C133.575 700 100 666.425 100 625V537.075C39.725 496.7 0 427.95 0 350C0 272.05 39.725 203.3 100 162.925ZM150 562.175V625C150 638.8 161.2 650 175 650H275C288.8 650 300 638.8 300 625V562.175C276.525 570.475 251.3 575 225 575C198.7 575 173.475 570.475 150 562.175ZM225 175C321.575 175 400 253.425 400 350C400 446.575 321.575 525 225 525C128.425 525 50 446.575 50 350C50 253.425 128.425 175 225 175ZM200 250V350C200 358.35 204.175 366.175 211.125 370.8L286.125 420.8C297.625 428.45 313.15 425.35 320.8 413.875C328.45 402.375 325.35 386.85 313.875 379.2L250 336.625V250C250 236.2 238.8 225 225 225C211.2 225 200 236.2 200 250ZM300 137.825V75C300 61.2 288.8 50 275 50H175C161.2 50 150 61.2 150 75V137.825C173.475 129.525 198.7 125 225 125C251.3 125 276.525 129.525 300 137.825Z" fill="#0540F2"/>
</svg>
