<svg width="36" height="28" viewBox="0 0 36 28" fill="none" xmlns="http://www.w3.org/2000/svg">
<g clip-path="url(#clip0_80_29)">
<path d="M30.4955 2.34496C28.1302 1.2337 25.6333 0.445332 23.0684 0C22.7174 0.643884 22.3998 1.30636 22.117 1.98464C19.3849 1.56215 16.6065 1.56215 13.8744 1.98464C13.5915 1.30643 13.2739 0.643962 12.9231 0C10.3565 0.449093 7.85792 1.23933 5.4903 2.35077C0.789968 9.48734 -0.484218 16.4467 0.152875 23.3072C2.90551 25.3943 5.98649 26.9815 9.26189 28C9.99941 26.982 10.652 25.9021 11.2128 24.7717C10.1477 24.3634 9.11965 23.8598 8.14061 23.2665C8.39828 23.0747 8.65028 22.8771 8.89379 22.6853C11.7426 24.0602 14.8519 24.773 18 24.773C21.1481 24.773 24.2574 24.0602 27.1062 22.6853C27.3525 22.8917 27.6045 23.0892 27.8593 23.2665C26.8784 23.8607 25.8485 24.3654 24.7815 24.7746C25.3416 25.9045 25.9942 26.9835 26.7324 28C30.0106 26.9856 33.0939 25.3991 35.8471 23.3101C36.5946 15.3541 34.5701 8.4587 30.4955 2.34496ZM12.0198 19.088C10.2444 19.088 8.7777 17.4346 8.7777 15.4006C8.7777 13.3665 10.1935 11.6986 12.0141 11.6986C13.8348 11.6986 15.2902 13.3665 15.2591 15.4006C15.2279 17.4346 13.8291 19.088 12.0198 19.088ZM23.9802 19.088C22.202 19.088 20.7409 17.4346 20.7409 15.4006C20.7409 13.3665 22.1567 11.6986 23.9802 11.6986C25.8037 11.6986 27.2477 13.3665 27.2166 15.4006C27.1854 17.4346 25.7895 19.088 23.9802 19.088Z" fill="#5865F2"/>
</g>
<defs>
<clipPath id="clip0_80_29">
<rect width="36" height="28" fill="white"/>
</clipPath>
</defs>
</svg>
