<svg width="608" height="608" viewBox="0 0 608 608" fill="none" xmlns="http://www.w3.org/2000/svg">
<g filter="url(#filter0_d_1_5719)">
<path fill-rule="evenodd" clip-rule="evenodd" d="M4 298.8C4 362.375 4 524.075 4 524.075C4 543.95 11.9 563.025 25.975 577.1C40.05 591.175 59.125 599.075 79 599.075C94.95 599.075 112.575 599.075 128.525 599.075C148.425 599.075 167.5 591.175 181.55 577.1C195.625 563.025 203.525 543.95 203.525 524.075C203.525 486.925 203.525 436.5 203.525 399.375C203.525 379.475 195.625 360.4 181.55 346.35C167.5 332.275 148.425 324.375 128.525 324.375H54V298.8C54 161.375 165.4 50 302.8 50H304.725C442.125 50 553.525 161.375 553.525 298.8V324.075H479C459.125 324.075 440.05 331.975 425.975 346.025C411.9 360.1 404 379.175 404 399.075C404 436.35 404 487.075 404 524.375C404 544.275 411.9 563.35 425.975 577.4C440.05 591.475 459.125 599.375 479 599.375C494.95 599.375 512.575 599.375 528.525 599.375C548.425 599.375 567.5 591.475 581.55 577.4C595.625 563.35 603.525 544.275 603.525 524.375C603.525 524.375 603.525 362.375 603.525 298.8C603.525 133.775 469.75 0 304.725 0H302.8C137.775 0 4 133.775 4 298.8ZM553.525 374.075V524.375C553.525 531 550.9 537.375 546.2 542.05C541.525 546.75 535.15 549.375 528.525 549.375H479C472.375 549.375 466.025 546.75 461.325 542.05C456.65 537.375 454 531 454 524.375V399.075C454 392.425 456.65 386.075 461.325 381.4C466.025 376.7 472.375 374.075 479 374.075H553.525ZM54 374.375H128.525C135.15 374.375 141.525 377 146.2 381.7C150.9 386.375 153.525 392.75 153.525 399.375V524.075C153.525 530.7 150.9 537.05 146.2 541.75C141.525 546.425 135.15 549.075 128.525 549.075H79C72.375 549.075 66.025 546.425 61.325 541.75C56.65 537.05 54 530.7 54 524.075V374.375Z" fill="#0540F2"/>
</g>
<defs>
<filter id="filter0_d_1_5719" x="0" y="0" width="607.525" height="607.375" filterUnits="userSpaceOnUse" color-interpolation-filters="sRGB">
<feFlood flood-opacity="0" result="BackgroundImageFix"/>
<feColorMatrix in="SourceAlpha" type="matrix" values="0 0 0 0 0 0 0 0 0 0 0 0 0 0 0 0 0 0 127 0" result="hardAlpha"/>
<feOffset dy="4"/>
<feGaussianBlur stdDeviation="2"/>
<feComposite in2="hardAlpha" operator="out"/>
<feColorMatrix type="matrix" values="0 0 0 0 0 0 0 0 0 0 0 0 0 0 0 0 0 0 0.25 0"/>
<feBlend mode="normal" in2="BackgroundImageFix" result="effect1_dropShadow_1_5719"/>
<feBlend mode="normal" in="SourceGraphic" in2="effect1_dropShadow_1_5719" result="shape"/>
</filter>
</defs>
</svg>
