<svg width="384" height="609" viewBox="0 0 384 609" fill="none" xmlns="http://www.w3.org/2000/svg">
<path d="M181.333 430H202C251.333 430 291 389 291 338.333V91.6667C291 41 251 0 202 0H181.333C132 0 92.3333 41 92.3333 91.6667V338C92.3333 388.667 132.333 429.667 181.333 429.667V430ZM142.333 91.6667C142.333 68.6667 160 50 181.333 50H202C223.667 50 241 68.6667 241 91.6667V338C241 361 223.333 379.667 202 379.667H181.333C159.667 379.667 142.333 361 142.333 338V91.6667ZM383.333 204.667V345.667C383.333 439.333 309.333 515.333 216.667 520V583.333C216.667 597 205.333 608.333 191.667 608.333C178 608.333 166.667 597 166.667 583.333V520C74 515.333 0 439.333 0 345.667V204.667C0 191 11.3333 179.667 25 179.667C38.6667 179.667 50 191 50 204.667V345.667C50 414.667 106.333 471 175.667 471H208C277.333 471 333.667 414.667 333.667 345.667V204.667C333.667 191 345 179.667 358.667 179.667C372.333 179.667 383.667 191 383.667 204.667H383.333Z" fill="#416EF2"/>
</svg>
