<svg width="15" height="15" viewBox="0 0 15 15" fill="none" xmlns="http://www.w3.org/2000/svg">
<path fill-rule="evenodd" clip-rule="evenodd" d="M2.19675 3.25726C1.9035 2.96401 1.9035 2.48922 2.19675 2.19672C2.49 1.90347 2.96475 1.90347 3.25725 2.19672C3.5505 2.48922 3.5505 2.96401 3.25725 3.25726C2.96475 3.55051 2.49 3.55051 2.19675 3.25726ZM12.8032 11.7427C13.0965 12.0352 13.0965 12.51 12.8032 12.8033C12.5107 13.0958 12.0352 13.0958 11.7427 12.8033C11.4495 12.51 11.4495 12.0352 11.7427 11.7427C12.0352 11.4495 12.5107 11.4495 12.8032 11.7427ZM3.25725 11.7427C3.5505 12.0352 3.5505 12.51 3.25725 12.8033C2.96475 13.0958 2.49 13.0958 2.19675 12.8033C1.9035 12.51 1.9035 12.0352 2.19675 11.7427C2.49 11.4495 2.96475 11.4495 3.25725 11.7427ZM12.8032 2.19672C13.0965 2.48922 13.0965 2.96401 12.8032 3.25726C12.5107 3.55051 12.0352 3.55051 11.7427 3.25726C11.4495 2.96401 11.4495 2.48922 11.7427 2.19672C12.0352 1.90347 12.5107 1.90347 12.8032 2.19672ZM1.5 7.5C1.5 7.914 1.164 8.25 0.75 8.25C0.336 8.25 0 7.914 0 7.5C0 7.086 0.336 6.75 0.75 6.75C1.164 6.75 1.5 7.086 1.5 7.5ZM15 7.5C15 7.914 14.664 8.25 14.25 8.25C13.836 8.25 13.5 7.914 13.5 7.5C13.5 7.086 13.836 6.75 14.25 6.75C14.664 6.75 15 7.086 15 7.5ZM8.25 14.25C8.25 14.664 7.914 15 7.5 15C7.086 15 6.75 14.664 6.75 14.25C6.75 13.836 7.086 13.5 7.5 13.5C7.914 13.5 8.25 13.836 8.25 14.25ZM6.75 0.75C6.75 0.336 7.086 0 7.5 0C7.914 0 8.25 0.336 8.25 0.75C8.25 1.164 7.914 1.5 7.5 1.5C7.086 1.5 6.75 1.164 6.75 0.75ZM7.5 11.25C5.43225 11.25 3.75 9.56775 3.75 7.5C3.75 5.43225 5.43225 3.75 7.5 3.75C9.56775 3.75 11.25 5.43225 11.25 7.5C11.25 9.56775 9.56775 11.25 7.5 11.25ZM7.5 2.25C4.6005 2.25 2.25 4.6005 2.25 7.5C2.25 10.3995 4.6005 12.75 7.5 12.75C10.3995 12.75 12.75 10.3995 12.75 7.5C12.75 4.6005 10.3995 2.25 7.5 2.25Z" fill="#E8EBF5"/>
</svg>
